<?xml version="1.0" encoding="utf-8"?>
<svg viewBox="110 106 280 193" xmlns="http://www.w3.org/2000/svg">
  <path d="M291.037 178.31l0 21.254l0 49.236c0 10.333 -7.543 18.875 -17.423 20.51c2.791 -6.235 4.376 -13.12 4.376 -20.392c0 -0.985 -0.039 -1.963 -0.097 -2.933l0.097 0l0 -10.12l0 -30.431l0 -40.058c0 -9.15 5.92 -16.905 14.143 -19.69c-0.71 3.356 -1.096 6.826 -1.096 10.39l0 22.233zm-71.668 0l0 21.254l0 49.236c0 10.516 -7.813 19.181 -17.954 20.59c2.812 -6.252 4.414 -13.17 4.414 -20.472c0 -0.985 -0.038 -1.963 -0.094 -2.933l0.094 0l0 -10.12l0 -30.431l0 -40.058c0 -9.345 6.178 -17.225 14.678 -19.85c-0.733 3.402 -1.138 6.928 -1.138 10.55l0 22.233zm121.825 -72.31c-14.058 0 -26.746 5.79 -35.852 15.091c-9.104 -9.294 -21.768 -15.091 -35.819 -15.091c-14.184 0 -26.966 5.903 -36.089 15.354c-9.118 -9.448 -21.89 -15.354 -36.07 -15.354c-27.698 0 -50.158 22.42 -50.158 50.077l0 22.232l0 21.255l0 49.236c0 11.498 -9.328 20.814 -20.844 20.814l-16.362 0c7.893 17.327 25.367 29.386 45.672 29.386c14.177 0 26.954 -5.896 36.077 -15.34c9.116 9.449 21.903 15.34 36.082 15.34c14.046 0 26.727 -5.78 35.833 -15.07c9.101 9.294 21.787 15.07 35.835 15.07c27.7 0 50.16 -22.423 50.16 -50.082c0 -0.985 -0.04 -1.963 -0.097 -2.933l0.097 0l0 -10.12l0 -30.431l0 -40.058c0 -11.325 9.065 -20.523 20.344 -20.788l0 -0.024l19.997 0c-5.21 -22.105 -25.075 -38.564 -48.806 -38.564z" id="shape.primary" style="fill: rgb(255, 255, 255);"/>
</svg>